<svg width="190" height="48" viewBox="0 0 190 48" fill="none" xmlns="http://www.w3.org/2000/svg">
<path d="M27.3558 36.815H45.4827C46.0585 36.815 46.624 36.6682 47.1227 36.389C47.6181 36.1128 48.0321 35.7111 48.323 35.2242C48.61 34.7431 48.7616 34.1935 48.7619 33.6333C48.7619 33.0749 48.6097 32.5265 48.3215 32.0429L36.1482 11.5905C35.8572 11.1038 35.4433 10.7022 34.948 10.4261C34.4469 10.1462 33.8824 9.99941 33.3084 9.99981C32.7326 9.99981 32.1672 10.1469 31.6686 10.4261C31.1733 10.7022 30.7595 11.1038 30.4686 11.5905L27.3558 16.8234L21.2701 6.59029C20.9789 6.10362 20.5648 5.70212 20.0693 5.4261C19.5681 5.14628 19.0034 4.99958 18.4293 5C17.8537 5 17.288 5.14705 16.7893 5.4261C16.294 5.70215 15.8799 6.10364 15.5888 6.59029L0.44 32.0429C0.152564 32.5236 0.000527968 33.0732 0 33.6333C0 34.1918 0.151048 34.7406 0.438857 35.2242C0.729821 35.7111 1.14382 36.1128 1.63924 36.389C2.14049 36.6689 2.70513 36.8156 3.27924 36.815H14.6577C19.1661 36.815 22.4907 34.8943 24.7785 31.1469L30.3326 21.8168L33.3074 16.8234L42.2358 31.8219H30.3326L27.3558 36.815ZM14.472 31.817L6.53143 31.815L18.4347 11.8183L24.3739 21.8168L20.3973 28.4994C18.8781 30.9309 17.1522 31.8168 14.4722 31.8168L14.472 31.817Z" fill="#00DC82"/>
<path d="M62.916 37V10.72H67.812L75.48 32.572C75.432 31.876 75.372 31.048 75.3 30.088C75.228 29.128 75.168 28.132 75.12 27.1C75.096 26.068 75.084 25.132 75.084 24.292V10.72H78.684V37H73.788L66.156 15.148C66.204 15.772 66.252 16.552 66.3 17.488C66.372 18.424 66.42 19.396 66.444 20.404C66.492 21.412 66.516 22.348 66.516 23.212V37H62.916ZM92.3499 37.36C89.9739 37.36 88.0779 36.676 86.6619 35.308C85.2459 33.916 84.5379 32.032 84.5379 29.656V17.2H88.4259V29.656C88.4259 31.024 88.7739 32.092 89.4699 32.86C90.1659 33.604 91.1259 33.976 92.3499 33.976C93.5979 33.976 94.5699 33.604 95.2659 32.86C95.9859 32.092 96.3459 31.024 96.3459 29.656V17.2H100.234V29.656C100.234 32.032 99.5139 33.916 98.0739 35.308C96.6579 36.676 94.7499 37.36 92.3499 37.36ZM104.72 37L111.668 26.776L105.152 17.2H109.616L113.108 22.672C113.276 22.96 113.444 23.272 113.612 23.608C113.78 23.92 113.912 24.184 114.008 24.4C114.08 24.184 114.2 23.92 114.368 23.608C114.536 23.272 114.704 22.96 114.872 22.672L118.364 17.2H122.828L116.312 26.812L123.224 37H118.76L114.908 31.06C114.74 30.772 114.572 30.448 114.404 30.088C114.236 29.728 114.104 29.44 114.008 29.224C113.912 29.44 113.768 29.728 113.576 30.088C113.408 30.448 113.228 30.772 113.036 31.06L109.148 37H104.72ZM137.718 37C135.918 37 134.514 36.508 133.506 35.524C132.498 34.54 131.994 33.172 131.994 31.42V20.728H126.522V17.2H131.994V11.62H135.882V17.2H143.622V20.728H135.882V31.42C135.882 32.788 136.542 33.472 137.862 33.472H143.262V37H137.718ZM157.144 37.36C155.536 37.36 154.12 37.048 152.896 36.424C151.696 35.776 150.772 34.876 150.124 33.724C149.476 32.572 149.152 31.228 149.152 29.692V24.508C149.152 22.948 149.476 21.604 150.124 20.476C150.772 19.324 151.696 18.436 152.896 17.812C154.12 17.164 155.536 16.84 157.144 16.84C158.776 16.84 160.192 17.164 161.392 17.812C162.592 18.436 163.516 19.324 164.164 20.476C164.812 21.604 165.136 22.948 165.136 24.508V28.036H152.896V29.692C152.896 31.156 153.256 32.272 153.976 33.04C154.72 33.808 155.788 34.192 157.18 34.192C158.308 34.192 159.22 34 159.916 33.616C160.612 33.208 161.044 32.62 161.212 31.852H165.064C164.776 33.532 163.912 34.876 162.472 35.884C161.032 36.868 159.256 37.36 157.144 37.36ZM161.392 25.696V24.472C161.392 23.032 161.032 21.916 160.312 21.124C159.592 20.332 158.536 19.936 157.144 19.936C155.776 19.936 154.72 20.332 153.976 21.124C153.256 21.916 152.896 23.044 152.896 24.508V25.408L161.68 25.372L161.392 25.696ZM176.75 37.36C174.686 37.36 173.054 36.832 171.854 35.776C170.678 34.696 170.09 33.232 170.09 31.384C170.09 29.512 170.714 28.048 171.962 26.992C173.234 25.912 174.974 25.372 177.182 25.372H182.69V23.536C182.69 22.456 182.354 21.616 181.682 21.016C181.01 20.416 180.062 20.116 178.838 20.116C177.758 20.116 176.858 20.356 176.138 20.836C175.418 21.292 174.998 21.904 174.878 22.672H171.062C171.278 20.896 172.094 19.48 173.51 18.424C174.95 17.368 176.762 16.84 178.946 16.84C181.298 16.84 183.158 17.44 184.526 18.64C185.894 19.816 186.578 21.424 186.578 23.464V37H182.798V33.364H182.15L182.798 32.644C182.798 34.084 182.246 35.236 181.142 36.1C180.038 36.94 178.574 37.36 176.75 37.36ZM177.902 34.372C179.294 34.372 180.434 34.024 181.322 33.328C182.234 32.608 182.69 31.696 182.69 30.592V28H177.254C176.246 28 175.442 28.276 174.842 28.828C174.266 29.38 173.978 30.136 173.978 31.096C173.978 32.104 174.326 32.908 175.022 33.508C175.718 34.084 176.678 34.372 177.902 34.372Z" fill="#00DC82"/>
</svg>
